<svg id="visual" viewBox="0 0 900 600" width="900" height="600" xmlns="http://www.w3.org/2000/svg" xmlns:xlink="http://www.w3.org/1999/xlink" version="1.1"><path d="M0 357L11.5 366.2C23 375.3 46 393.7 69 404.2C92 414.7 115 417.3 138.2 418C161.3 418.7 184.7 417.3 207.8 417C231 416.7 254 417.3 277 411C300 404.7 323 391.3 346 381.8C369 372.3 392 366.7 415.2 363.3C438.3 360 461.7 359 484.8 370.2C508 381.3 531 404.7 554 416.7C577 428.7 600 429.3 623 430C646 430.7 669 431.3 692.2 425.7C715.3 420 738.7 408 761.8 402C785 396 808 396 831 392.7C854 389.3 877 382.7 888.5 379.3L900 376L900 601L888.5 601C877 601 854 601 831 601C808 601 785 601 761.8 601C738.7 601 715.3 601 692.2 601C669 601 646 601 623 601C600 601 577 601 554 601C531 601 508 601 484.8 601C461.7 601 438.3 601 415.2 601C392 601 369 601 346 601C323 601 300 601 277 601C254 601 231 601 207.8 601C184.7 601 161.3 601 138.2 601C115 601 92 601 69 601C46 601 23 601 11.5 601L0 601Z" fill="#d93939"></path><path d="M0 403L11.5 411.7C23 420.3 46 437.7 69 436.3C92 435 115 415 138.2 414.3C161.3 413.7 184.7 432.3 207.8 440C231 447.7 254 444.3 277 443.8C300 443.3 323 445.7 346 439C369 432.3 392 416.7 415.2 406.7C438.3 396.7 461.7 392.3 484.8 401C508 409.7 531 431.3 554 436.8C577 442.3 600 431.7 623 424C646 416.3 669 411.7 692.2 417C715.3 422.3 738.7 437.7 761.8 436.7C785 435.7 808 418.3 831 409.3C854 400.3 877 399.7 888.5 399.3L900 399L900 601L888.5 601C877 601 854 601 831 601C808 601 785 601 761.8 601C738.7 601 715.3 601 692.2 601C669 601 646 601 623 601C600 601 577 601 554 601C531 601 508 601 484.8 601C461.7 601 438.3 601 415.2 601C392 601 369 601 346 601C323 601 300 601 277 601C254 601 231 601 207.8 601C184.7 601 161.3 601 138.2 601C115 601 92 601 69 601C46 601 23 601 11.5 601L0 601Z" fill="#d83342"></path><path d="M0 458L11.5 454.8C23 451.7 46 445.3 69 440.3C92 435.3 115 431.7 138.2 435.8C161.3 440 184.7 452 207.8 457.8C231 463.7 254 463.3 277 464C300 464.7 323 466.3 346 465.5C369 464.7 392 461.3 415.2 452.8C438.3 444.3 461.7 430.7 484.8 427.8C508 425 531 433 554 439.8C577 446.7 600 452.3 623 449.2C646 446 669 434 692.2 432.3C715.3 430.7 738.7 439.3 761.8 445.8C785 452.3 808 456.7 831 458.3C854 460 877 459 888.5 458.5L900 458L900 601L888.5 601C877 601 854 601 831 601C808 601 785 601 761.8 601C738.7 601 715.3 601 692.2 601C669 601 646 601 623 601C600 601 577 601 554 601C531 601 508 601 484.8 601C461.7 601 438.3 601 415.2 601C392 601 369 601 346 601C323 601 300 601 277 601C254 601 231 601 207.8 601C184.7 601 161.3 601 138.2 601C115 601 92 601 69 601C46 601 23 601 11.5 601L0 601Z" fill="#d62d4a"></path><path d="M0 501L11.5 492.2C23 483.3 46 465.7 69 460.2C92 454.7 115 461.3 138.2 465.5C161.3 469.7 184.7 471.3 207.8 469.5C231 467.7 254 462.3 277 466.8C300 471.3 323 485.7 346 493.7C369 501.7 392 503.3 415.2 500.2C438.3 497 461.7 489 484.8 480.2C508 471.3 531 461.7 554 466.2C577 470.7 600 489.3 623 489.5C646 489.7 669 471.3 692.2 464.5C715.3 457.7 738.7 462.3 761.8 466.8C785 471.3 808 475.7 831 481.8C854 488 877 496 888.5 500L900 504L900 601L888.5 601C877 601 854 601 831 601C808 601 785 601 761.8 601C738.7 601 715.3 601 692.2 601C669 601 646 601 623 601C600 601 577 601 554 601C531 601 508 601 484.8 601C461.7 601 438.3 601 415.2 601C392 601 369 601 346 601C323 601 300 601 277 601C254 601 231 601 207.8 601C184.7 601 161.3 601 138.2 601C115 601 92 601 69 601C46 601 23 601 11.5 601L0 601Z" fill="#d32852"></path><path d="M0 490L11.5 490.3C23 490.7 46 491.3 69 498.2C92 505 115 518 138.2 518.8C161.3 519.7 184.7 508.3 207.8 500C231 491.7 254 486.3 277 491.3C300 496.3 323 511.7 346 519C369 526.3 392 525.7 415.2 518.2C438.3 510.7 461.7 496.3 484.8 493.2C508 490 531 498 554 499.7C577 501.3 600 496.7 623 493.8C646 491 669 490 692.2 488C715.3 486 738.7 483 761.8 486C785 489 808 498 831 506.3C854 514.7 877 522.3 888.5 526.2L900 530L900 601L888.5 601C877 601 854 601 831 601C808 601 785 601 761.8 601C738.7 601 715.3 601 692.2 601C669 601 646 601 623 601C600 601 577 601 554 601C531 601 508 601 484.8 601C461.7 601 438.3 601 415.2 601C392 601 369 601 346 601C323 601 300 601 277 601C254 601 231 601 207.8 601C184.7 601 161.3 601 138.2 601C115 601 92 601 69 601C46 601 23 601 11.5 601L0 601Z" fill="#cf255a"></path><path d="M0 539L11.5 535.5C23 532 46 525 69 526.7C92 528.3 115 538.7 138.2 544.7C161.3 550.7 184.7 552.3 207.8 546.7C231 541 254 528 277 524.7C300 521.3 323 527.7 346 527.2C369 526.7 392 519.3 415.2 518.7C438.3 518 461.7 524 484.8 531.3C508 538.7 531 547.3 554 546.5C577 545.7 600 535.3 623 535.3C646 535.3 669 545.7 692.2 549C715.3 552.3 738.7 548.7 761.8 548C785 547.3 808 549.7 831 548.5C854 547.3 877 542.7 888.5 540.3L900 538L900 601L888.5 601C877 601 854 601 831 601C808 601 785 601 761.8 601C738.7 601 715.3 601 692.2 601C669 601 646 601 623 601C600 601 577 601 554 601C531 601 508 601 484.8 601C461.7 601 438.3 601 415.2 601C392 601 369 601 346 601C323 601 300 601 277 601C254 601 231 601 207.8 601C184.7 601 161.3 601 138.2 601C115 601 92 601 69 601C46 601 23 601 11.5 601L0 601Z" fill="#cb2361"></path><path d="M0 553L11.5 552.2C23 551.3 46 549.7 69 548.8C92 548 115 548 138.2 550.5C161.3 553 184.7 558 207.8 561.3C231 564.7 254 566.3 277 569C300 571.7 323 575.3 346 577C369 578.7 392 578.3 415.2 573.5C438.3 568.7 461.7 559.3 484.8 558.8C508 558.3 531 566.7 554 571C577 575.3 600 575.7 623 571.7C646 567.7 669 559.3 692.2 559.8C715.3 560.3 738.7 569.7 761.8 573.7C785 577.7 808 576.3 831 571.2C854 566 877 557 888.5 552.5L900 548L900 601L888.5 601C877 601 854 601 831 601C808 601 785 601 761.8 601C738.7 601 715.3 601 692.2 601C669 601 646 601 623 601C600 601 577 601 554 601C531 601 508 601 484.8 601C461.7 601 438.3 601 415.2 601C392 601 369 601 346 601C323 601 300 601 277 601C254 601 231 601 207.8 601C184.7 601 161.3 601 138.2 601C115 601 92 601 69 601C46 601 23 601 11.5 601L0 601Z" fill="#c62368"></path></svg>