<svg id="visual" viewBox="0 0 900 450" width="900" height="450" xmlns="http://www.w3.org/2000/svg" xmlns:xlink="http://www.w3.org/1999/xlink" version="1.1"><path d="M0 374L21.5 377.3C43 380.7 86 387.3 128.8 387.5C171.7 387.7 214.3 381.3 257.2 385.7C300 390 343 405 385.8 405.3C428.7 405.7 471.3 391.3 514.2 381.7C557 372 600 367 642.8 371.3C685.7 375.7 728.3 389.3 771.2 390.8C814 392.3 857 381.7 878.5 376.3L900 371L900 451L878.5 451C857 451 814 451 771.2 451C728.3 451 685.7 451 642.8 451C600 451 557 451 514.2 451C471.3 451 428.7 451 385.8 451C343 451 300 451 257.2 451C214.3 451 171.7 451 128.8 451C86 451 43 451 21.5 451L0 451Z" fill="#d93939"></path><path d="M0 400L21.5 403.5C43 407 86 414 128.8 420.3C171.7 426.7 214.3 432.3 257.2 426.2C300 420 343 402 385.8 396.7C428.7 391.3 471.3 398.7 514.2 398.7C557 398.7 600 391.3 642.8 393C685.7 394.7 728.3 405.3 771.2 403.5C814 401.7 857 387.3 878.5 380.2L900 373L900 451L878.5 451C857 451 814 451 771.2 451C728.3 451 685.7 451 642.8 451C600 451 557 451 514.2 451C471.3 451 428.7 451 385.8 451C343 451 300 451 257.2 451C214.3 451 171.7 451 128.8 451C86 451 43 451 21.5 451L0 451Z" fill="#d83143"></path><path d="M0 425L21.5 426.8C43 428.7 86 432.3 128.8 429.5C171.7 426.7 214.3 417.3 257.2 414.5C300 411.7 343 415.3 385.8 416.7C428.7 418 471.3 417 514.2 418.5C557 420 600 424 642.8 426C685.7 428 728.3 428 771.2 421.5C814 415 857 402 878.5 395.5L900 389L900 451L878.5 451C857 451 814 451 771.2 451C728.3 451 685.7 451 642.8 451C600 451 557 451 514.2 451C471.3 451 428.7 451 385.8 451C343 451 300 451 257.2 451C214.3 451 171.7 451 128.8 451C86 451 43 451 21.5 451L0 451Z" fill="#d52b4d"></path><path d="M0 411L21.5 413.7C43 416.3 86 421.7 128.8 427.2C171.7 432.7 214.3 438.3 257.2 435.2C300 432 343 420 385.8 413.7C428.7 407.3 471.3 406.7 514.2 409.7C557 412.7 600 419.3 642.8 422C685.7 424.7 728.3 423.3 771.2 424.8C814 426.3 857 430.7 878.5 432.8L900 435L900 451L878.5 451C857 451 814 451 771.2 451C728.3 451 685.7 451 642.8 451C600 451 557 451 514.2 451C471.3 451 428.7 451 385.8 451C343 451 300 451 257.2 451C214.3 451 171.7 451 128.8 451C86 451 43 451 21.5 451L0 451Z" fill="#d12657"></path><path d="M0 437L21.5 434.5C43 432 86 427 128.8 423.2C171.7 419.3 214.3 416.7 257.2 417C300 417.3 343 420.7 385.8 421.2C428.7 421.7 471.3 419.3 514.2 419.5C557 419.7 600 422.3 642.8 422C685.7 421.7 728.3 418.3 771.2 416.8C814 415.3 857 415.7 878.5 415.8L900 416L900 451L878.5 451C857 451 814 451 771.2 451C728.3 451 685.7 451 642.8 451C600 451 557 451 514.2 451C471.3 451 428.7 451 385.8 451C343 451 300 451 257.2 451C214.3 451 171.7 451 128.8 451C86 451 43 451 21.5 451L0 451Z" fill="#cc235f"></path><path d="M0 442L21.5 441.5C43 441 86 440 128.8 438.7C171.7 437.3 214.3 435.7 257.2 433.5C300 431.3 343 428.7 385.8 429.5C428.7 430.3 471.3 434.7 514.2 434.8C557 435 600 431 642.8 430.5C685.7 430 728.3 433 771.2 434C814 435 857 434 878.5 433.5L900 433L900 451L878.5 451C857 451 814 451 771.2 451C728.3 451 685.7 451 642.8 451C600 451 557 451 514.2 451C471.3 451 428.7 451 385.8 451C343 451 300 451 257.2 451C214.3 451 171.7 451 128.8 451C86 451 43 451 21.5 451L0 451Z" fill="#c62368"></path></svg>